<svg width="32" height="32" fill="none" xmlns="http://www.w3.org/2000/svg"><g clip-path="url(#a)"><circle cx="16" cy="16" r="16" fill="#E84D37"/><path d="M16 8.5c-1.2 0-2.3.3-3.2.8a5.8 5.8 0 0 0-2.4 8.3c-.4 0-.8.2-1 .4a2 2 0 0 0-.7 1 1.9 1.9 0 0 0 .5 2l1 .5h1.2l1-.7c.2-.2.3-.6.4-1l.2.2c.1.6.5 1.2 1 1.7a3 3 0 0 0 3.9 0c.5-.5.9-1 1-1.7l.3-.2c0 .4.2.8.4 1l1 .7a2.2 2.2 0 0 0 2.1-.5c.3-.3.5-.6.6-1v-1a2 2 0 0 0-.7-1c-.3-.2-.7-.4-1-.4a5.8 5.8 0 0 0 0-6c-.6-1-1.5-1.8-2.4-2.3-1-.5-2.1-.8-3.2-.8ZM16 7a8 8 0 0 1 6.5 3.1 7.4 7.4 0 0 1 1.1 6.8c.8.5 1.2 1.3 1.4 2.2 0 1-.1 1.8-.7 2.6-.6.7-1.4 1.2-2.3 1.3-1 .2-2 0-2.7-.5a4.6 4.6 0 0 1-3.3 1.3 4.8 4.8 0 0 1-3.4-1.3c-.7.5-1.7.6-2.6.5-1-.2-1.7-.7-2.3-1.4a3.3 3.3 0 0 1 .6-4.7A7.2 7.2 0 0 1 9.5 10a8 8 0 0 1 2.8-2.3c1.2-.5 2.4-.8 3.7-.8Z" fill="#fff"/><path d="M10.7 24c.6 0 1.2-.2 1.8-.4l.3.1-.2.1 1 .9.3-.4.5.2-.5.5.8.8 1-.8-.4-.3a6 6 0 0 0 1.3 0l-.3.3.9.8.8-.8-.5-.5.5-.2.4.4.9-.9h-.1l.2-.2 1.8.3h.2v.4l-4.7 12.2v.2h-.1v.1h-.1l-.1.1H16c0 .1-.2.1-.2 0h-.4l-.2-.2v-.2l-4.7-12.2v-.4Zm3.2 3.3.9.8.8-.8-.9-.9-.8.9Zm3 1.1-1-.8-.8.8.9.8.8-.8ZM15 30.7l.9.8.8-.8-.8-.8-1 .8Zm.9-5.4-1 .8 1 .9.8-.9-.8-.8Zm.3 2 .9.8.9-.8-1-.9-.8.9Zm3.4-3-.1-.1-1 .8.6.5.5-1.3Zm-.7 1.6-.6-.6-.9.8.9.9.4-.4.2-.7Zm-.6 1.7-1 .8.5.4.5-1.2Zm-1 2.5.4-.8-.6-.6-1 .8 1 .9.2-.3Zm-.7 2 .4-1-.8.7.4.4Zm-.7 2 .5-1.5-.5-.5-.6.5.6 1.4Zm-.7-2 .3-.3-.7-.7.4 1Zm-.8-2 .3.3.8-.9-.9-.8-.5.6.3.9Zm-.5-1.3.4-.4-.9-.8.5 1.2Zm-.8-2.2.3.4 1-.9-1-.8-.6.6.3.7Zm-.5-1.1.5-.5-.9-.8.4 1.3Z" fill="#fff"/></g><defs><clipPath id="a"><rect width="32" height="32" rx="16" fill="#fff"/></clipPath></defs></svg>