<svg width="28" height="28" fill="none" xmlns="http://www.w3.org/2000/svg"><path fill-rule="evenodd" clip-rule="evenodd" d="M26 14a12 12 0 1 1-24 0 12 12 0 0 1 24 0Zm-9.6.9H15V20h-2.3v-5.1H11v-2.4h1.7v-1.7C12.7 9 13.8 8 15.4 8H17v2.1h-.9c-1.1 0-1.1.6-1.1 1.2v1.2h2l-.6 2.4Z" fill="#FCFCFC"/><path d="M14 24A10 10 0 0 1 4 14H0a14 14 0 0 0 14 14v-4Zm10-10a10 10 0 0 1-10 10v4a14 14 0 0 0 14-14h-4ZM14 4a10 10 0 0 1 10 10h4A14 14 0 0 0 14 0v4Zm0-4A14 14 0 0 0 0 14h4A10 10 0 0 1 14 4V0Z" fill="#FCFCFC" fill-opacity=".2"/></svg>