<svg width="48" height="48" fill="none" xmlns="http://www.w3.org/2000/svg"><circle cx="24" cy="24" r="23" stroke="#2D3440" stroke-width="2"/><path d="M24 8a8.0094 8.0094 0 0 0-7.9435 7.0588H16v15.8871h16V15.0588h-.0565A8.0095 8.0095 0 0 0 24 8Zm6.1176 21.0635H17.8824v-8.6776a1.6847 1.6847 0 0 0 1.4494.6023c1.2141 0 2.0047-.6776 2.0047-1.5341v-.8188a.808.808 0 0 1 .2023-.6278.8088.8088 0 0 1 .6024-.2688.8098.8098 0 0 1 .8047.8966v3.0965a1.759 1.759 0 0 0 .6098 1.3104 1.7605 1.7605 0 0 0 1.3855.4119 1.7503 1.7503 0 0 0 1.9953-1.647v-2.08a1.2703 1.2703 0 0 1 1.2659-1.3799 1.2696 1.2696 0 0 1 .9362.4117 1.2704 1.2704 0 0 1 .3296.9682.3869.3869 0 0 0 0 .0847 1.0636 1.0636 0 0 0 .6306.8376V29.12l.0188-.0565ZM22.5882 38.5882A1.412 1.412 0 0 0 24 40a1.4118 1.4118 0 0 0 1.4118-1.4118v-6.7011h-2.8236v6.7011Z" fill="#2D3440"/></svg>